<svg xmlns="http://www.w3.org/2000/svg" viewBox="0 0 512 512" role="img" aria-labelledby="title desc">
  <title id="title">LexiBench icon</title>
  <desc id="desc">A geometric LB mark on a dark field with a small bench line.</desc>
  <rect width="512" height="512" rx="96" fill="#18212a"/>
  <path fill="#f6f8fa" d="M114 108h70v218h120v70H114z"/>
  <path fill="#f6f8fa" d="M280 108h78c64 0 100 34 100 82 0 31-15 55-43 68 35 13 55 42 55 79 0 54-41 91-106 91h-84zm66 64v58h24c22 0 35-11 35-29s-14-29-36-29zm0 116v74h32c24 0 38-14 38-37 0-24-15-37-40-37z"/>
  <rect x="112" y="426" width="288" height="28" rx="14" fill="#176f73"/>
  <rect x="400" y="426" width="42" height="28" rx="14" fill="#8b4d1b"/>
</svg>
